<?xml version="1.0" standalone="no"?><!DOCTYPE svg PUBLIC "-//W3C//DTD SVG 1.1//EN" "http://www.w3.org/Graphics/SVG/1.1/DTD/svg11.dtd"><svg t="1611506561004" class="icon" viewBox="0 0 1024 1024" version="1.1" xmlns="http://www.w3.org/2000/svg" p-id="3410" xmlns:xlink="http://www.w3.org/1999/xlink" width="200" height="200"><defs><style type="text/css"></style></defs><path d="M512 128c211.744 0 384 172.256 384 384S723.744 896 512 896 128 723.744 128 512 300.256 128 512 128m0-64C264.576 64 64 264.576 64 512s200.576 448 448 448 448-200.576 448-448S759.424 64 512 64z" p-id="3411" fill="#ffffff"></path><path d="M512 320m-64 0a64 64 0 1 0 128 0 64 64 0 1 0-128 0Z" p-id="3412" fill="#ffffff"></path><path d="M512 768a32 32 0 0 1-32-32V448a32 32 0 0 1 64 0v288a32 32 0 0 1-32 32z" p-id="3413" fill="#ffffff"></path><path d="M576 480h-128a32 32 0 0 1 0-64h128a32 32 0 0 1 0 64zM576 768h-128a32 32 0 0 1 0-64h128a32 32 0 0 1 0 64z" p-id="3414" fill="#ffffff"></path></svg>